<svg xmlns="http://www.w3.org/2000/svg" xml:space="preserve" fill-rule="evenodd" stroke-linejoin="round" stroke-miterlimit="2" clip-rule="evenodd" viewBox="0 0 64 64">
  <g id="grey">
    <path fill="#909090" d="m22.871 28.006-1.563.902-2.444-2.05 1.563-.902 2.444 2.05Zm4.367 3.664-1.564.902-2.443-2.05 1.562-.902 2.445 2.05Zm-5.021-6.748 5.609-3.238 2.444 2.051-5.61 3.238-2.443-2.051Zm4.367 3.664 5.609-3.238 2.443 2.051-5.609 3.238-2.443-2.051Zm3.044-7.942 1.213-.701 2.444 2.05-1.214.701-2.443-2.05Zm4.366 3.664 1.214-.701 2.443 2.051-1.213.7-2.444-2.05Zm4.383 3.702 1.231-.71 2.444 2.05-1.231.711-2.444-2.051Zm4.611 3.824 1.193-.697 2.443 2.05-1.193.698-2.443-2.051Zm.621 3.094-5.577 3.229-2.444-2.051 5.577-3.228 2.444 2.05Zm-7.398 4.271-1.563.903-2.444-2.051 1.562-.902 2.445 2.05Zm-4.574-3.836-1.562.902-2.444-2.051 1.563-.902 2.443 2.051Zm-.674-3.064 5.63-3.259 2.443 2.051-5.628 3.258-2.445-2.05Zm-20.496 3-1.563.902-2.443-2.05 1.562-.902 2.444 2.05Zm4.367 3.664-1.563.902-2.443-2.05 1.562-.902 2.444 2.05Zm-5.02-6.748 5.608-3.238 2.444 2.051-5.609 3.238-2.443-2.051Zm4.366 3.664 5.609-3.238 2.444 2.051-5.609 3.238-2.444-2.051Zm3.044-7.942 1.214-.701 2.443 2.05-1.213.701-2.444-2.05Zm4.367 3.664 1.213-.701 2.444 2.051-1.213.7-2.444-2.05Zm4.382 3.702 1.231-.71 2.445 2.05-1.231.711-2.445-2.051Zm4.611 3.824 1.194-.697 2.443 2.05-1.194.698-2.443-2.051Zm.622 3.094-5.577 3.229-2.445-2.051 5.578-3.228 2.444 2.05Zm-7.399 4.271-1.562.903-2.444-2.051 1.562-.902 2.444 2.05Zm-4.573-3.836-1.562.902-2.444-2.051 1.562-.902 2.444 2.051Zm-.674-3.064 5.629-3.259 2.444 2.051-5.629 3.258-2.444-2.05ZM41.097 43.3l-1.563.902-2.444-2.051 1.563-.902 2.444 2.051Zm4.367 3.664-1.564.902-2.443-2.051 1.562-.902 2.445 2.051Zm-5.021-6.749 5.609-3.238 2.444 2.051-5.61 3.238-2.443-2.051Zm4.367 3.665 5.609-3.239 2.444 2.051-5.61 3.238-2.443-2.05Zm3.044-7.943 1.213-.701 2.444 2.051-1.214.7-2.443-2.05Zm4.367 3.664 1.213-.7 2.443 2.05-1.213.701-2.443-2.051ZM28.693 50.593l-1.563.902-2.443-2.051 1.562-.902 2.444 2.051Zm4.367 3.664-1.563.902-2.443-2.051 1.562-.902 2.444 2.051Zm-5.02-6.749 5.608-3.238 2.444 2.051-5.609 3.238-2.443-2.051Zm4.366 3.664 5.609-3.238 2.444 2.051-5.609 3.238-2.444-2.051Zm3.044-7.942 1.214-.701 2.443 2.051-1.213.7-2.444-2.05Zm4.367 3.664 1.213-.7 2.444 2.05-1.213.7-2.444-2.05Z"/>
    <path fill="#6e6e6e" d="m20.755 29.353-1.891-1.582v-.913l2.444 2.044 1.558-.9.644.542-2.202 1.271-.432-.361v.741l-.569.329-.644-.541 1.092-.63Zm4.367 3.664-1.891-1.582v-.913l2.443 2.044 1.559-.9.644.542-2.203 1.271-.431-.361v.741l-.569.329-.644-.541 1.092-.63Zm8.975 7.53-1.893-1.583v-.913l2.444 2.045 1.558-.9.644.541-2.202 1.271-.431-.36v.741l-.572.306-.622-.521 1.074-.627Zm-4.574-3.838-1.892-1.582v-.913l2.444 2.044 1.557-.899.645.541-2.202 1.271-.431-.36v.741l-.587.339-.645-.541 1.111-.641Zm9.458 7.937-1.891-1.582v-.913l2.444 2.044 1.558-.899.644.541-2.202 1.271-.432-.361v.742l-.569.328-.644-.54 1.092-.631Zm4.367 3.664-1.891-1.582v-.913l2.443 2.044 1.559-.899.644.541-2.203 1.271-.431-.361v.742l-.569.328-.644-.54 1.092-.631ZM24.584 27.019l5.681-3.288.644.54-5.681 3.289-.644-.541Zm4.366 3.664 5.682-3.288.644.54-5.682 3.289-.644-.541Zm3.117-7.993 1.213-.7v.912l-.569.329-.644-.541Zm4.366 3.664 1.214-.7v.912l-.57.329-.644-.541Zm4.383 3.703 1.231-.711v.913l-.587.339-.644-.541Zm4.611 3.824 1.193-.697v.913l-.572.305-.621-.521Zm-1.177 1.584-5.578 3.228-.644-.54 5.577-3.229.645.541Zm-10.847-1.12 5.629-3.258.644.541-5.629 3.258-.644-.541Zm-22.297 1.492-2.202 1.271-2.443-2.044v-.913l2.443 2.044 1.559-.9.643.542Zm4.367 3.664-2.202 1.271-2.443-2.044v-.913l2.443 2.044 1.558-.9.644.542Zm-3.293-5.189 5.682-3.288.644.54-5.682 3.289-.644-.541Zm4.367 3.664 5.681-3.288.644.54-5.681 3.289-.644-.541Zm15.299 4.782-5.577 3.228-.644-.54 5.576-3.229.645.541Zm-7.399 4.272-2.202 1.271-2.444-2.044v-.913l2.444 2.045 1.557-.9.645.541Zm-4.573-3.837-2.202 1.271-2.444-2.044v-.913l2.444 2.044 1.557-.899.645.541ZM21 41.638l5.628-3.258.645.541-5.629 3.258-.644-.541Zm21.81.674 5.681-3.288.644.541-5.681 3.288-.644-.541Zm4.366 3.664 5.682-3.288.644.541-5.682 3.288-.644-.541Zm3.117-7.992 1.213-.701v.913l-.569.328-.644-.54Zm4.366 3.664 1.214-.701v.913l-.57.328-.644-.54ZM29.332 51.13l-2.202 1.271-2.443-2.044v-.913l2.443 2.044 1.559-.899.643.541Zm4.367 3.664-2.202 1.271-2.443-2.044v-.913l2.443 2.044 1.558-.899.644.541Zm-3.293-5.189 5.682-3.288.644.541-5.682 3.288-.644-.541Zm4.367 3.664 5.681-3.288.644.541-5.681 3.288-.644-.541Z"/>
    <path fill="#575656" d="m47.54 48.744.105-1.21.921-.538-.106 1.215zm7.399-4.272.105-1.21.921-.538-.106 1.215zM35.137 56.037l.101-1.218.925-.53-.107 1.215zm7.399-4.272.105-1.21.921-.538-.107 1.215z"/>
    <path fill="#b5b5b5" d="m19.54 23.944.921-.532L48.571 47l-.926.527L19.54 23.944Zm7.399-4.272.921-.532 28.109 23.587-.925.529-28.105-23.584ZM7.137 31.237l.921-.532 28.11 23.588-.926.527L7.137 31.237Zm7.399-4.272.921-.532L43.566 50.02l-.925.529-28.105-23.584Z"/>
    <path fill="#c2bdbd" d="m5.541 33.903 27.272 22.884-4.178 2.412L1.363 36.315l4.178-2.412Zm29.635-17.334 27.431 23.016-4.076 2.352-27.43-23.016 4.075-2.352Z"/>
    <path fill="#707070" d="m58.552 41.954-.057 1.497-27.394-22.985v-1.545l27.451 23.033Zm-29.79 17.2v1.544L1.47 37.797v-1.544l27.292 22.901Z"/>
    <path fill="#2e2e2e" d="M62.637 39.516v1.544l-4.142 2.391v-1.544l4.142-2.391zm-29.861 17.24v1.545l-4.141 2.391v-1.544l4.141-2.392z"/>
  </g>
  <g id="brown" fill="#6c5353">
    <path d="M7.136 31.161 35.25 54.826l-.11 1.223L7.137 32.512zm24.787 11.695L14.536 28.271v-1.305L32.603 42.12zm3.017-4.684-1.486-1.24.928-.541 1.237 1.046zm-1.486-1.247L19.54 25.249v-1.304l14.838 12.45zm2.165.514 12.026 10.089-.106 1.216L34.956 38.16zm-3.021 4.684L42.64 50.55l-.107 1.215-10.617-8.898zm-5.66-21.145v-1.305l28.106 23.584-.106 1.215z"/>
  </g>
  <g stroke-width=".8171">
    <path d="m17.751 32.872-.017.13-1.066.534-.109-.078zm4.231 4.29.007.136-1.186.6-5.373-3.743-1.1.544v-.158l1.152-.56 5.311 3.761z"/>
    <path fill="#ffa700" d="m19.133 36.562-3.68-2.581-1.11.542-.464-2.393 3.879.724-1.11.542 3.363 2.362zm.878-.806 1.978 1.388-1.195.585-1.664-1.167z"/>
  </g>
  <g stroke-width=".8171">
    <path d="m30.597 47.515 3.857.72.01.115-3.865-.727zm-4.246-4.29 5.334 3.744-.117.057-5.214-3.66z"/>
    <path fill="#ffa700" d="m32.752 47.912-2.146-.4 1.11-.543-5.342-3.75 1.196-.583 5.273 3.764zm.09-1.514 1.113-.561.528 2.402-1.732-.33z"/>
  </g>
  <g stroke-width=".8171">
    <path d="m43.237 40.312 3.857.72.01.115-3.865-.728zm-4.246-4.29 5.334 3.743-.118.057-5.214-3.66z"/>
    <path fill="#ffa700" d="m45.392 40.709-2.146-.401 1.11-.543-5.342-3.749 1.196-.584 5.273 3.764zm.09-1.514 1.113-.562.528 2.402-1.732-.33z"/>
  </g>
  <g stroke-width=".8171">
    <path d="m30.656 26.022-.017.13-1.066.534-.109-.079zm4.231 4.29.007.136-1.186.6-5.373-3.743-1.1.544v-.158l1.152-.56 5.311 3.761z"/>
    <path fill="#ffa700" d="m32.038 29.712-3.68-2.581-1.11.542-.464-2.393 3.879.723-1.11.543 3.363 2.362zm.878-.806 1.978 1.388-1.195.585-1.664-1.168z"/>
  </g>
</svg>
