<svg xmlns="http://www.w3.org/2000/svg" xml:space="preserve" fill-rule="evenodd" stroke-linejoin="round" stroke-miterlimit="2" clip-rule="evenodd" viewBox="0 0 64 64">
  <g id="grey">
    <path fill="#909090" d="m21.864 29.421-1.563.902-2.444-2.05 1.563-.902 2.444 2.05Zm4.367 3.664-1.564.902-2.443-2.05 1.562-.902 2.445 2.05Zm-5.021-6.748 5.609-3.238 2.444 2.051-5.61 3.238-2.443-2.051Zm4.367 3.664 5.609-3.238 2.443 2.051-5.609 3.238-2.443-2.051Zm3.044-7.942 1.213-.701 2.444 2.05-1.214.701-2.443-2.05Zm4.366 3.664 1.214-.701 2.443 2.051-1.213.7-2.444-2.05Zm4.383 3.702 1.231-.71 2.444 2.05-1.231.711-2.444-2.051Zm4.611 3.824 1.193-.697 2.443 2.05-1.193.698-2.443-2.051Zm.621 3.094-5.577 3.229-2.444-2.051 5.577-3.228 2.444 2.05Zm-7.398 4.271-1.563.903-2.444-2.051 1.562-.902 2.445 2.05Zm-4.574-3.836-1.562.902-2.444-2.051 1.563-.902 2.443 2.051Zm-.674-3.064 5.63-3.259 2.443 2.051-5.628 3.258-2.445-2.05Zm-20.496 3-1.563.902-2.443-2.05 1.562-.902 2.444 2.05Zm4.367 3.664-1.563.902-2.443-2.05 1.562-.902 2.444 2.05Zm-5.02-6.748 5.608-3.238 2.444 2.051-5.609 3.238-2.443-2.051Zm4.366 3.664 5.609-3.238 2.444 2.051-5.609 3.238-2.444-2.051Zm3.044-7.942 1.214-.701 2.443 2.05-1.213.701-2.444-2.05Zm4.367 3.664 1.213-.701 2.444 2.051-1.213.7-2.444-2.05Zm4.382 3.702 1.231-.71 2.445 2.05-1.231.711-2.445-2.051Zm4.611 3.824 1.194-.697 2.443 2.05-1.194.698-2.443-2.051Zm.622 3.094-5.577 3.229-2.445-2.051 5.578-3.228 2.444 2.05ZM22.8 47.907l-1.562.903-2.444-2.051 1.562-.902 2.444 2.05Zm-4.573-3.836-1.562.902-2.444-2.051 1.562-.902 2.444 2.051Zm-.674-3.064 5.629-3.259 2.444 2.051-5.629 3.258-2.444-2.05Zm22.537 3.708-1.563.902-2.444-2.051 1.563-.902 2.444 2.051Zm4.367 3.664-1.564.902-2.443-2.051 1.562-.902 2.445 2.051Zm-5.021-6.749 5.609-3.238 2.444 2.051-5.61 3.238-2.443-2.051Zm4.367 3.665 5.609-3.239 2.444 2.051-5.61 3.238-2.443-2.05Zm3.044-7.943 1.213-.701 2.444 2.051-1.214.7-2.443-2.05Zm4.367 3.664 1.213-.7 2.443 2.05-1.213.701-2.443-2.051ZM27.686 52.008l-1.563.902-2.443-2.051 1.562-.902 2.444 2.051Zm4.367 3.664-1.563.902-2.443-2.051 1.562-.902 2.444 2.051Zm-5.02-6.749 5.608-3.238 2.444 2.051-5.609 3.238-2.443-2.051Zm4.366 3.664 5.609-3.238 2.444 2.051-5.609 3.238-2.444-2.051Zm3.044-7.942 1.214-.701 2.443 2.051-1.213.7-2.444-2.05Zm4.367 3.664 1.213-.7 2.444 2.05-1.213.7-2.444-2.05Z"/>
    <path fill="#6e6e6e" d="m19.748 30.768-1.891-1.582v-.913l2.444 2.044 1.558-.9.644.542-2.202 1.271-.432-.361v.741l-.569.329-.644-.541 1.092-.63Zm4.367 3.664-1.891-1.582v-.913l2.443 2.044 1.559-.9.644.542-2.203 1.271-.431-.361v.741l-.569.329-.644-.541 1.092-.63Zm8.975 7.53-1.893-1.583v-.913l2.444 2.045 1.558-.9.644.541-2.202 1.271-.431-.36v.741l-.572.306-.622-.521 1.074-.627Zm-4.574-3.838-1.892-1.582v-.913l2.444 2.044 1.557-.899.645.541-2.202 1.271-.431-.36v.741l-.587.339-.645-.541 1.111-.641Zm9.458 7.937-1.891-1.582v-.913l2.444 2.044 1.558-.899.644.541-2.202 1.271-.432-.361v.742l-.569.328-.644-.54 1.092-.631Zm4.367 3.664-1.891-1.582v-.913l2.443 2.044 1.559-.899.644.541-2.203 1.271-.431-.361v.742l-.569.328-.644-.54 1.092-.631ZM23.577 28.434l5.681-3.288.644.54-5.681 3.289-.644-.541Zm4.366 3.664 5.682-3.288.644.54-5.682 3.289-.644-.541Zm3.117-7.993 1.213-.7v.912l-.569.329-.644-.541Zm4.366 3.664 1.214-.7v.912l-.57.329-.644-.541Zm4.383 3.703 1.231-.711v.913l-.587.339-.644-.541Zm4.611 3.824 1.193-.697v.913l-.572.305-.621-.521Zm-1.177 1.584-5.578 3.228-.644-.54 5.577-3.229.645.541Zm-10.847-1.12 5.629-3.258.644.541-5.629 3.258-.644-.541Zm-22.297 1.492-2.202 1.271-2.443-2.044v-.913l2.443 2.044 1.559-.9.643.542Zm4.367 3.664-2.202 1.271-2.443-2.044v-.913l2.443 2.044 1.558-.9.644.542Zm-3.293-5.189 5.682-3.288.644.54-5.682 3.289-.644-.541Zm4.367 3.664 5.681-3.288.644.54-5.681 3.289-.644-.541Zm15.299 4.782-5.577 3.228-.644-.54 5.576-3.229.645.541Zm-7.399 4.272-2.202 1.271-2.444-2.044v-.913l2.444 2.045 1.557-.9.645.541Zm-4.573-3.837-2.202 1.271-2.444-2.044v-.913l2.444 2.044 1.557-.899.645.541Zm1.126-1.555 5.628-3.258.645.541-5.629 3.258-.644-.541Zm21.81.674 5.681-3.288.644.541-5.681 3.288-.644-.541Zm4.366 3.664 5.682-3.288.644.541-5.682 3.288-.644-.541Zm3.117-7.992 1.213-.701v.913l-.569.328-.644-.54Zm4.366 3.664 1.214-.701v.913l-.57.328-.644-.54Zm-25.327 9.482-2.202 1.271-2.443-2.044v-.913l2.443 2.044 1.559-.899.643.541Zm4.367 3.664L30.49 57.48l-2.443-2.044v-.913l2.443 2.044 1.558-.899.644.541Zm-3.293-5.189 5.682-3.288.644.541-5.682 3.288-.644-.541Zm4.367 3.664 5.681-3.288.644.541-5.681 3.288-.644-.541Z"/>
    <path fill="#575656" d="m46.533 50.159.105-1.21.921-.538-.106 1.215-.92.533Zm7.399-4.272.105-1.21.921-.538-.106 1.215-.92.533ZM34.13 57.451l.105-1.209.921-.538-.107 1.215-.919.532Zm7.399-4.271.105-1.21.921-.538-.107 1.215-.919.533Z"/>
    <path fill="#b5b5b5" d="m18.533 25.359.921-.532 28.11 23.588-.926.527-28.105-23.583Zm7.399-4.272.921-.532 28.109 23.587-.925.529-28.105-23.584ZM6.13 32.652l.921-.532 28.11 23.588-.926.527L6.13 32.652Zm7.399-4.272.921-.532 28.109 23.587-.925.529L13.529 28.38Z"/>
  </g>
  <g id="brown">
    <g fill="#6c5353">
      <path d="M7.136 31.161 35.25 54.826l-.11 1.223L7.137 32.512zm24.787 11.695L14.536 28.271v-1.305L32.603 42.12zm3.017-4.684-1.486-1.24.928-.541 1.237 1.046zm-1.486-1.247L19.54 25.249v-1.304l14.838 12.45zm2.165.514 12.026 10.089-.106 1.216L34.956 38.16zm-3.021 4.684L42.64 50.55l-.107 1.215-10.617-8.898zm-5.66-21.145v-1.305l28.106 23.584-.106 1.215z" transform="translate(-1.0033 1.4305)"/>
    </g>
  </g>
  <g stroke-width=".8171">
    <path fill="#1a1a1a" d="m28.962 48.75 3.72.758.01.121-3.728-.765zm-4.096-4.514 5.145 3.939-.113.06-5.03-3.852z"/>
    <path fill="#ffa700" d="m31.04 49.168-2.07-.422 1.07-.571-5.152-3.945 1.153-.615 5.087 3.961zm.087-1.593 1.073-.591.51 2.528-1.67-.347z"/>
  </g>
  <g stroke-width=".8171">
    <path fill="#1a1a1a" d="m32.999 29.407-.017.137-1.028.562-.105-.083zm4.081 4.514.007.145-1.144.63-5.183-3.939-1.06.573v-.167l1.11-.588 5.123 3.958z"/>
    <path fill="#ffa700" d="m34.332 33.29-3.55-2.716-1.071.57-.448-2.518 3.742.762-1.07.57 3.244 2.487zm.847-.847 1.908 1.46-1.153.616-1.605-1.229z"/>
  </g>
</svg>
