<svg xmlns="http://www.w3.org/2000/svg" xml:space="preserve" fill-rule="evenodd" stroke-linejoin="round" stroke-miterlimit="2" clip-rule="evenodd" viewBox="0 0 64 64">
  <g id="green">
    <path fill="#2fcf08" d="m2.01 33.937 28.934-16.684L61.99 43.304 33.071 60 2.01 33.937Z"/>
    <path fill="#2fcf08" d="m21.224 30.086-1.608-1.382-.017-13.782L31.87 25.156l-.029 13.828-1.498-1.26.005-.658-9.113-7.745-.011.765Z"/>
    <path fill="#00580d" d="M27.829 34.287v-4.795l3.163 2.655v4.77l-3.163-2.63Zm-3.814-3.2v-4.795l3.163 2.654v4.771l-3.163-2.63Zm3.814-3.061v-4.794l3.163 2.654v4.77l-3.163-2.63Zm-3.814-3.2v-4.795l3.163 2.655v4.77l-3.163-2.63Zm-3.836 3.041v-4.794l3.163 2.654v4.77l-3.163-2.63Zm0-6.26v-4.795l3.163 2.654v4.771l-3.163-2.63Z"/>
    <path fill="#006117" fill-rule="nonzero" d="m31.841 38.984 11.828-6.83-.017-13.767-11.782 6.769-.029 13.828Z"/>
    <path fill="#81f340" fill-rule="nonzero" d="M19.599 14.922 31.87 25.156l11.782-6.769-12.25-10.279-11.803 6.814Z"/>
  </g>
  <g id="blue">
    <path fill="#2cabfc" fill-rule="nonzero" d="m19.616 37.4 12.225 10.258.029-8.674-12.254-10.28V37.4Z"/>
    <path fill="#324565" d="m20.106 37.363-.008-6.22 3.655 3.081v6.194l-3.647-3.055Zm7.459 6.247.001-6.168 3.738 3.136.018 6.211-3.757-3.179Zm-3.168-2.233-.051-7.504 2.643 2.247.051 7.51-2.643-2.253Z"/>
    <path fill="#17a" fill-rule="nonzero" d="m31.841 47.658 11.811-6.99.017-8.514-11.828 6.83v8.674Z"/>
    <path fill="#33c2fc" fill-rule="nonzero" d="m21.215 31.275 9.11 7.561.023-1.795-9.108-7.672-.025 1.906Z"/>
  </g>
</svg>
