<svg xmlns="http://www.w3.org/2000/svg" xml:space="preserve" fill-rule="evenodd" stroke-linejoin="round" stroke-miterlimit="2" clip-rule="evenodd" viewBox="0 0 64 64">
  <g id="green">
    <path fill="#81f340" d="m2.01 33.937 28.934-16.684 22.712 19.058-28.919 16.696L2.01 33.937Z"/>
    <path fill="#2fcf08" fill-rule="nonzero" d="m20.196 37.457 11.499 9.619.031-12.273-11.624-9.763.094 12.417Z"/>
    <path fill="#006117" fill-rule="nonzero" d="m31.695 47.106 10.228-6.077.031-11.68-5.179-2.009-5.095 7.424.015 12.342Z"/>
    <path fill="#00580d" d="M24.878 41.342v-5.838l2.298 1.928-.001 5.851-2.297-1.941Zm3.019.552-.001-3.857 3.123 2.62v3.798l-3.122-2.561Zm-6.855-5.753-.048-3.896 3.123 2.621.069 3.948-3.144-2.673Zm6.886.657-.001-3.847 3.123 2.621-.031 3.82-3.091-2.594Zm-6.806-5.761-.096-3.876 3.191 2.677v3.847l-3.095-2.648Z"/>
    <path fill="#81f340" fill-rule="nonzero" d="m20.098 25.046 11.582 9.718 5.095-7.424-11.613-9.745-5.064 7.451Z"/>
    <path fill="#24eb29" fill-rule="nonzero" d="m30.005 19.323 11.949 10.026-5.179-2.009-11.613-9.745 4.843 1.728Z"/>
  </g>
  <g id="blue">
    <path fill="#1cc2ff" fill-rule="nonzero" d="m24.737 53.007 8.381 6.966L61.99 43.238l-8.288-6.954-28.965 16.723Z"/>
  </g>
</svg>
