<svg xmlns="http://www.w3.org/2000/svg" xml:space="preserve" fill-rule="evenodd" stroke-linejoin="round" stroke-miterlimit="2" clip-rule="evenodd" viewBox="0 0 64 64">
  <g id="green">
    <path fill="#2fcf08" d="m2.01 33.937 28.934-16.684L61.99 43.304 33.071 60 2.01 33.937Z"/>
    <path fill="#00b41a" d="M32.432 41.785 19.348 30.767l.138-12.243 12.949 11.044-.003 12.217Z"/>
    <path fill="#00b41a" d="m23.919 29.852 2.552 2.159v-5.766l-2.552-2.14v5.747Zm-3.641-3.009 2.552 2.159v-5.766l-2.552-2.14v5.747Zm7.283 6.009 2.551 2.159v-5.766l-2.551-2.14v5.747Z"/>
    <path fill="#00580d" d="M28.15 33.346v-5.747l2.551 2.14v5.766l-2.551-2.159Zm-3.642-3v-5.747l2.552 2.14v5.766l-2.552-2.159Zm-3.641-3.009V21.59l2.552 2.14v5.766l-2.552-2.159Z"/>
    <path fill="#006117" d="m32.435 41.791-.003-12.226 12.475-7.094v12.111l-12.472 7.209Z"/>
    <path fill="#02ff26" d="M18.703 16.282 32.268 8.45l13.773 11.512-13.609 7.849-13.729-11.529Z"/>
    <path fill="#00ce1e" d="m20.531 16.319 12.16 10.125 11.236-6.579L32.108 9.638l-11.577 6.681Z"/>
    <path fill="#08961c" fill-rule="nonzero" d="m19.486 18.524-.783-2.242 13.732 11.532.003 1.754-12.952-11.044Z"/>
    <path fill="#024412" fill-rule="nonzero" d="m32.432 27.811 13.609-7.849-1.134 2.509-12.475 7.094v-1.754Z"/>
  </g>
  <g id="blue">
    <path fill="#0089cf" d="m21.084 38.123-1.701-1.428-.035-2.201 1.769 1.484-.033 2.145Zm7.752 4.36 2.26 1.965 1.342-1.21-.039 4.378-3.563-2.989v-2.144Z"/>
    <path fill="#0071a9" fill-rule="nonzero" d="m44.907 40.394-12.508 7.222.039-5.823 12.469-7.203v5.804Z"/>
    <path fill="#03243e" fill-rule="nonzero" d="m21.084 38.123.033-2.145 7.719 6.508v2.141l-7.752-6.504Z"/>
    <path fill="#73d0ff" fill-rule="nonzero" d="m19.348 30.767-1.764 2.213 13.512 11.468 1.332-1.201.01-1.454-13.09-11.026Z"/>
  </g>
</svg>
