<svg xmlns="http://www.w3.org/2000/svg" xml:space="preserve" fill-rule="evenodd" stroke-linejoin="round" stroke-miterlimit="2" clip-rule="evenodd" viewBox="0 0 64 64">
  <g id="green">
    <path fill="#81f340" d="m2.01 33.937 28.934-16.684L58.34 40.242 29.421 56.938 2.01 33.937Z"/>
    <path fill="#7cff62" fill-rule="nonzero" d="m17.036 25.794 4.694 3.921 1.583-1.55 4.744-2.835-3.164 7.039 4.088 3.43-2.7 1.611 4.528-.309 10.885-6.221-16.743-14.05-7.915 8.964Z"/>
    <path fill="#00b41a" d="m26.172 45.367 9.135 7.666.002-8.7-4.5-7.232-4.631.316-.006 7.95Z"/>
    <path fill="#1fa70b" fill-rule="nonzero" d="m17.036 31.706 9.141 7.67.001-1.959 2.803-1.618-4.088-3.43-1.626-4.271-1.537 1.617-4.694-3.921v5.912Z"/>
    <path fill="#03d321" d="m35.309 44.382-4.471-7.234 16.218-9.364 4.412 7.294-2.313 1.335-2.6-1.722-4.861-3.811 2.275 8.527-8.66 4.975ZM23.267 28.098l4.77-2.738-3.144 7.009-1.626-4.271Z"/>
    <path fill="#7bfe62" fill-rule="nonzero" d="m41.694 30.88 2.275 8.527 2.586-4.716-4.861-3.811Z"/>
    <path fill="#006117" fill-rule="nonzero" d="m35.307 53.033 16.161-9.33v-8.625l-2.313 1.335-2.6-1.722-2.586 4.716-8.66 4.975-.002 8.651Z"/>
    <path fill="#008620" d="M27.034 46.09v-5.995l7.061 6.174v5.747l-7.061-5.926Z"/>
    <path fill="#60e958" d="m41.694 30.88-13.468 4.285.755.634-.637.38 13.35-5.299Z"/>
    <path fill="#60e958" d="m44.52 29.248-2.826 1.632-16.743-14.05 5.981 1.016L44.52 29.248Z"/>
  </g>
  <g id="blue">
    <path fill="#1cc2ff" fill-rule="nonzero" d="m29.375 56.965 3.743 3.008 28.918-16.696-3.696-3.035-28.965 16.723Z"/>
  </g>
</svg>
