<svg xmlns="http://www.w3.org/2000/svg" xml:space="preserve" fill-rule="evenodd" stroke-linejoin="round" stroke-miterlimit="2" clip-rule="evenodd" viewBox="0 0 64 64">
  <g id="grey">
    <path fill="#909090" d="m21.864 29.421-1.563.902-2.444-2.05 1.563-.902zm4.367 3.664-1.564.902-2.443-2.05 1.562-.902zm-5.021-6.748 5.609-3.238 2.444 2.051-5.61 3.238zm4.367 3.664 5.609-3.238 2.443 2.051-5.609 3.238zm3.044-7.942 1.213-.701 2.444 2.05-1.214.701zm4.366 3.664 1.214-.701 2.443 2.051-1.213.7zm4.383 3.702 1.231-.71 2.444 2.05-1.231.711zm4.611 3.824 1.193-.697 2.443 2.05-1.193.698zm.621 3.094-5.577 3.229-2.444-2.051 5.577-3.228zm-7.398 4.271-1.563.903-2.444-2.051 1.562-.902zm-4.574-3.836-1.562.902-2.444-2.051 1.563-.902zm-.674-3.064 5.63-3.259 2.443 2.051-5.628 3.258zm-20.496 3-1.563.902-2.443-2.05 1.562-.902zm4.367 3.664-1.563.902-2.443-2.05 1.562-.902zm-5.02-6.748 5.608-3.238 2.444 2.051-5.609 3.238zm4.366 3.664 5.609-3.238 2.444 2.051-5.609 3.238zm3.044-7.942 1.214-.701 2.443 2.05-1.213.701zm4.367 3.664 1.213-.701 2.444 2.051-1.213.7zm4.382 3.702 1.231-.71 2.445 2.05-1.231.711zm4.611 3.824 1.194-.697 2.443 2.05-1.194.698zm.622 3.094-5.577 3.229-2.445-2.051 5.578-3.228zM22.8 47.907l-1.562.903-2.444-2.051 1.562-.902zm-4.573-3.836-1.562.902-2.444-2.051 1.562-.902zm-.674-3.064 5.629-3.259 2.444 2.051-5.629 3.258zm22.537 3.708-1.563.902-2.444-2.051 1.563-.902zm4.367 3.664-1.564.902-2.443-2.051 1.562-.902zm-5.021-6.749 5.609-3.238 2.444 2.051-5.61 3.238zm4.367 3.665 5.609-3.239 2.444 2.051-5.61 3.238zm3.044-7.943 1.213-.701 2.444 2.051-1.214.7zm4.367 3.664 1.213-.7 2.443 2.05-1.213.701zM27.686 52.008l-1.563.902-2.443-2.051 1.562-.902zm4.367 3.664-1.563.902-2.443-2.051 1.562-.902zm-5.02-6.749 5.608-3.238 2.444 2.051-5.609 3.238zm4.366 3.664 5.609-3.238 2.444 2.051-5.609 3.238zm3.044-7.942 1.214-.701 2.443 2.051-1.213.7zm4.367 3.664 1.213-.7 2.444 2.05-1.213.7z" transform="matrix(.85828 0 0 .85828 -3.9909 9.7571)"/>
    <path fill="#6e6e6e" d="m19.748 30.768-1.891-1.582v-.913l2.444 2.044 1.558-.9.644.542-2.202 1.271-.432-.361v.741l-.569.329-.644-.541zm4.367 3.664-1.891-1.582v-.913l2.443 2.044 1.559-.9.644.542-2.203 1.271-.431-.361v.741l-.569.329-.644-.541zm8.975 7.53-1.893-1.583v-.913l2.444 2.045 1.558-.9.644.541-2.202 1.271-.431-.36v.741l-.572.306-.622-.521zm-4.574-3.838-1.892-1.582v-.913l2.444 2.044 1.557-.899.645.541-2.202 1.271-.431-.36v.741l-.587.339-.645-.541zm9.458 7.937-1.891-1.582v-.913l2.444 2.044 1.558-.899.644.541-2.202 1.271-.432-.361v.742l-.569.328-.644-.54zm4.367 3.664-1.891-1.582v-.913l2.443 2.044 1.559-.899.644.541-2.203 1.271-.431-.361v.742l-.569.328-.644-.54zM23.577 28.434l5.681-3.288.644.54-5.681 3.289zm4.366 3.664 5.682-3.288.644.54-5.682 3.289zm3.117-7.993 1.213-.7v.912l-.569.329zm4.366 3.664 1.214-.7v.912l-.57.329zm4.383 3.703 1.231-.711v.913l-.587.339zm4.611 3.824 1.193-.697v.913l-.572.305zm-1.177 1.584-5.578 3.228-.644-.54 5.577-3.229zm-10.847-1.12 5.629-3.258.644.541-5.629 3.258zm-22.297 1.492-2.202 1.271-2.443-2.044v-.913l2.443 2.044 1.559-.9zm4.367 3.664-2.202 1.271-2.443-2.044v-.913l2.443 2.044 1.558-.9zm-3.293-5.189 5.682-3.288.644.54-5.682 3.289zm4.367 3.664 5.681-3.288.644.54-5.681 3.289zm15.299 4.782-5.577 3.228-.644-.54 5.576-3.229zm-7.399 4.272-2.202 1.271-2.444-2.044v-.913l2.444 2.045 1.557-.9zm-4.573-3.837-2.202 1.271-2.444-2.044v-.913l2.444 2.044 1.557-.899zm1.126-1.555 5.628-3.258.645.541-5.629 3.258zm21.81.674 5.681-3.288.644.541-5.681 3.288zm4.366 3.664 5.682-3.288.644.541-5.682 3.288zm3.117-7.992 1.213-.701v.913l-.569.328zm4.366 3.664 1.214-.701v.913l-.57.328zm-25.327 9.482-2.202 1.271-2.443-2.044v-.913l2.443 2.044 1.559-.899zm4.367 3.664L30.49 57.48l-2.443-2.044v-.913l2.443 2.044 1.558-.899zm-3.293-5.189 5.682-3.288.644.541-5.682 3.288zm4.367 3.664 5.681-3.288.644.541-5.681 3.288z" transform="matrix(.85828 0 0 .85828 -3.9909 9.7571)"/>
    <path fill="#575656" d="m46.533 50.159.105-1.21.921-.538-.106 1.215zm7.399-4.272.105-1.21.921-.538-.106 1.215zM34.13 57.451l.105-1.209.921-.538-.107 1.215zm7.399-4.271.105-1.21.921-.538-.107 1.215z" transform="matrix(.85828 0 0 .85828 -3.9909 9.7571)"/>
    <path fill="#b5b5b5" d="m18.533 25.359.921-.532 28.11 23.588-.926.527zm7.399-4.272.921-.532 28.109 23.587-.925.529zM6.13 32.652l.921-.532 28.11 23.588-.926.527zm7.399-4.272.921-.532 28.109 23.587-.925.529z" transform="matrix(.85828 0 0 .85828 -3.9909 9.7571)"/>
  </g>
  <g id="brown">
    <g fill="#6c5353">
      <path d="M7.136 31.161 35.25 54.826l-.11 1.223L7.137 32.512zm24.787 11.695L14.536 28.271v-1.305L32.603 42.12zm3.017-4.684-1.486-1.24.928-.541 1.237 1.046zm-1.486-1.247L19.54 25.249v-1.304l14.838 12.45zm2.165.514 12.026 10.089-.106 1.216L34.956 38.16zm-3.021 4.684L42.64 50.55l-.107 1.215-10.617-8.898zm-5.66-21.145v-1.305l28.106 23.584-.106 1.215z" transform="matrix(.85828 0 0 .85828 -3.9909 9.7571) translate(-1.0033 1.4305)"/>
    </g>
  </g>
  <g stroke-width=".8171">
    <path fill="#1a1a1a" d="m20.866 51.597 3.193.65.009.104-3.2-.657zm-3.515-3.875 4.416 3.381-.098.052-4.316-3.306z"/>
    <path fill="#ffa700" d="m22.65 51.955-1.777-.362.92-.49-4.423-3.386.99-.527 4.365 3.4zm.074-1.367.922-.507.437 2.17-1.433-.298z"/>
  </g>
  <g stroke-width="1.1564">
    <path fill="#909090" d="M1.728 43.885v.656h-.043a.36.36 0 0 1-.12.106c-.187.108-.459.095-.607-.029a.297.297 0 0 1-.066-.077H.865V27.969h.053a.391.391 0 0 1 .112-.095c.187-.108.46-.095.607.029.024.02.043.043.058.066h.033v1.69l.599.502v-.966h.053a.388.388 0 0 1 .111-.094c.187-.109.459-.096.607.028a.27.27 0 0 1 .058.066h.034v16.572h-.043a.364.364 0 0 1-.12.107c-.188.107-.46.094-.607-.03"/>
    <path fill="#d4d4d4" d="m11.419 25.55.004.004-3.038 3.263 2.177-.327.283.237-.527.342-2.257.096-4.91 5.275.04-1.256 5.77-6.245-5.721 3.236-.1-.818 8.118-4.65.665.558zm17.284 14.502.004.004-3.038 3.264 2.177-.327.282.237-.527.342-2.257.096-4.909 5.273.038-1.255 5.77-6.242-5.72 3.234-.1-.818 8.118-4.65.666.558z"/>
    <path d="m10.698 28.823.149.125L25.292 41.07l-.64.367L9.93 29.085l.387-.016zm15.981 13.411.934.784.011.008-.916.138-.502-.421zm-1.128-.041-.255-.214.645-.364.08.068z"/>
  </g>
  <g stroke-width=".8171">
    <path fill="#1a1a1a" d="m31.84 45.357 3.194.65.008.104-3.2-.657zm-3.514-3.875 4.415 3.381-.097.052-4.317-3.306z"/>
    <path fill="#ffa700" d="m33.625 45.716-1.777-.362.919-.49-4.422-3.386.99-.528 4.365 3.4zm.074-1.368.922-.507.437 2.17-1.434-.298z"/>
  </g>
  <g>
    <path fill="#909090" d="m32.494 18.902-1.341.774-2.098-1.76 1.342-.773zm3.749 3.145-1.343.774-2.097-1.76 1.341-.774zm-4.31-5.792 4.814-2.779 2.098 1.76-4.815 2.78zm3.748 3.145 4.814-2.78 2.097 1.761-4.814 2.78zm2.613-6.817 1.04-.601 2.099 1.76-1.042.601zm3.747 3.145 1.042-.601 2.097 1.76-1.041.6zm3.762 3.178 1.056-.61 2.098 1.76-1.056.61zm3.957 3.282 1.024-.599 2.097 1.76-1.024.599zm.533 2.655-4.786 2.772-2.098-1.76 4.787-2.771zm-6.35 3.666-1.34.775-2.098-1.76 1.34-.775zm-3.925-3.292-1.34.774-2.098-1.76 1.341-.775zm-.578-2.63 4.832-2.797 2.097 1.76-4.83 2.796zm-17.592 2.575-1.341.774-2.097-1.76 1.34-.774zm3.748 3.144-1.341.774-2.097-1.759 1.34-.774zm-4.308-5.791 4.813-2.78 2.098 1.76-4.814 2.78zm3.747 3.144 4.814-2.779 2.098 1.76-4.814 2.78zm2.613-6.816 1.042-.602 2.096 1.76-1.04.601zm3.748 3.145 1.04-.602 2.099 1.76-1.042.601zm3.76 3.177 1.057-.61 2.099 1.76-1.057.61zm3.958 3.282 1.025-.598 2.097 1.76-1.025.598zm.534 2.656-4.786 2.771-2.099-1.76 4.788-2.77zm-6.35 3.665-1.34.775-2.098-1.76 1.34-.774zm-3.925-3.292-1.34.774-2.098-1.76 1.34-.774zm-.579-2.63 4.832-2.797 2.097 1.76-4.831 2.797zm19.343 3.183-1.341.774-2.098-1.76 1.342-.775zm3.749 3.144-1.343.775-2.097-1.76 1.341-.775zm-4.31-5.792 4.814-2.78 2.098 1.761-4.815 2.78zm3.748 3.145 4.814-2.78 2.098 1.76-4.815 2.78zm2.613-6.817 1.04-.601 2.099 1.76-1.042.6zm3.748 3.145 1.041-.6 2.097 1.759-1.041.601zm-20.194 9.434-1.341.774-2.097-1.76 1.34-.774zm3.748 3.145-1.341.774-2.097-1.76 1.34-.774zm-4.308-5.793 4.813-2.779 2.098 1.76-4.814 2.78zm3.747 3.145 4.814-2.779 2.098 1.76-4.814 2.78zm2.613-6.816 1.042-.602 2.096 1.76-1.04.601zm3.748 3.144 1.04-.6 2.099 1.759-1.042.6z"/>
    <path fill="#6e6e6e" d="M30.678 20.058 29.055 18.7v-.783l2.098 1.754 1.337-.772.553.465-1.89 1.09-.37-.31v.637l-.49.282-.552-.464zm3.748 3.145-1.623-1.358v-.783l2.097 1.754 1.338-.773.553.466-1.89 1.09-.37-.31v.637l-.49.282-.552-.464zm7.703 6.463-1.624-1.359v-.783l2.097 1.755 1.338-.773.552.465-1.89 1.09-.37-.308v.636l-.49.262-.534-.447zm-3.925-3.294-1.624-1.358v-.784l2.097 1.755 1.337-.772.553.464-1.89 1.091-.37-.309v.636l-.503.291-.554-.464zm8.117 6.812-1.623-1.358v-.783l2.098 1.754 1.337-.772.553.465-1.89 1.09-.37-.31v.637l-.49.282-.552-.463zm3.748 3.145-1.623-1.358v-.784l2.097 1.755 1.338-.772.553.464-1.89 1.091-.37-.31v.637l-.49.282-.552-.464zM33.965 18.055l4.876-2.822.552.463-4.876 2.823zm3.747 3.145 4.877-2.822.552.463-4.876 2.823zm2.675-6.86 1.041-.601v.782l-.488.283zm3.747 3.144 1.042-.6v.782l-.489.283zm3.762 3.178 1.057-.61v.784l-.504.29zm3.958 3.283 1.024-.599v.784l-.491.262zm-1.01 1.36-4.788 2.77-.553-.464 4.787-2.771zm-9.31-.962 4.831-2.796.553.464-4.831 2.796zm-19.137 1.28-1.89 1.091-2.097-1.754v-.784l2.097 1.755 1.338-.773zm3.748 3.145-1.89 1.091-2.097-1.754v-.784l2.097 1.754 1.337-.772zm-2.826-4.454 4.876-2.822.553.464-4.877 2.823zm3.748 3.145 4.876-2.822.552.464-4.876 2.823zm13.13 4.105-4.786 2.77-.553-.463 4.786-2.772zm-6.35 3.666-1.89 1.09-2.097-1.753v-.784l2.097 1.755 1.336-.772zm-3.925-3.293-1.89 1.09-2.097-1.754v-.783l2.097 1.754 1.337-.771zm.967-1.335 4.83-2.796.554.464-4.832 2.797zm18.719.579 4.876-2.822.552.464-4.876 2.822zm3.747 3.144 4.877-2.822.552.465-4.876 2.822zm2.675-6.859 1.041-.602v.784l-.488.282zm3.747 3.145 1.042-.602v.784l-.489.281zM38.04 38.749l-1.89 1.09-2.097-1.753v-.784l2.097 1.754 1.338-.771zm3.748 3.145-1.89 1.09-2.097-1.754v-.783l2.097 1.754 1.337-.772zm-2.826-4.454 4.876-2.822.553.464-4.877 2.822zm3.748 3.145 4.876-2.822.552.464-4.876 2.822z"/>
    <path fill="#575656" d="m53.667 36.701.09-1.038.79-.462-.09 1.043zm6.35-3.666.09-1.039.791-.462-.09 1.043zM43.023 42.96l.09-1.038.79-.462-.091 1.043zm6.35-3.666.09-1.038.791-.462-.092 1.043z"/>
    <path fill="#b5b5b5" d="m29.636 15.416.79-.457 24.126 20.245-.795.453zm6.35-3.667.79-.456 24.126 20.244-.794.454zM18.99 21.675l.79-.456 24.127 20.245-.795.452zm6.35-3.666.791-.457 24.126 20.244-.794.454z"/>
    <g fill="#6c5353">
      <path d="m18.993 21.623 24.13 20.312-.095 1.05-24.036-20.202zm21.274 10.038L25.344 19.143v-1.12L40.85 31.029zm2.589-4.02-1.275-1.065.797-.464 1.06.898zm-1.275-1.07L29.638 16.548v-1.12l12.736 10.687zm1.858.44 10.321 8.66-.09 1.043-10.8-9.084zm-2.593 4.02 8.62 7.233-.092 1.043-9.113-7.637zm-4.857-18.148v-1.12L60.11 32.005l-.091 1.043z"/>
    </g>
    <g stroke-width=".8171">
      <path fill="#1a1a1a" d="m42.051 18.89-.014.118-.882.482-.09-.07zm3.503 3.874.006.124-.982.542-4.449-3.381-.91.492v-.143l.954-.506 4.397 3.397z"/>
      <path fill="#ffa700" d="m43.195 22.223-3.047-2.331-.919.49-.384-2.162 3.212.654-.92.49 2.785 2.133zm.728-.727 1.637 1.253-.99.529-1.377-1.055z"/>
    </g>
  </g>
  <g stroke-width="1.1564">
    <path fill="#909090" d="M44.93 15.031v.602h-.04a.317.317 0 0 1-.11.097c-.172.1-.42.087-.557-.026"/>
    <path fill="#d4d4d4" d="m35.37 8.878-.911.526-.608-.51.912-.525 10.22-5.901.608.51-8.226 4.749L44.772 5.9l.608.51-5.34 1.317-3.07 2.535-.63.33-.258-.217 3.147-2.448zm15.78 13.24-1.281.74-.608-.51 1.282-.74 10.22-5.9.607.51-8.225 4.75 7.407-1.827.607.51-5.338 1.316-3.072 2.536-.63.329-.258-.216 3.148-2.449z"/>
    <path d="m36.878 10.31.347.292 13.199 11.075-.587.34-13.57-11.388.073-.037zm15.217 13.502-.074.037-1.576-1.323.587-.338 1.282 1.075-.453.353z"/>
  </g>
  <g stroke-width=".8171">
    <path fill="#1a1a1a" d="m30.875 25.33-.014.118-.882.482-.09-.07zm3.503 3.874.006.124-.982.542-4.449-3.38-.91.49v-.142l.953-.506 4.398 3.397z"/>
    <path fill="#ffa700" d="m32.02 28.663-3.048-2.331-.919.49-.384-2.162 3.212.654-.92.49 2.785 2.133zm.726-.727 1.638 1.253-.99.528-1.377-1.054z"/>
  </g>
</svg>
