<svg xmlns="http://www.w3.org/2000/svg" xml:space="preserve" fill-rule="evenodd" stroke-linejoin="round" stroke-miterlimit="2" clip-rule="evenodd" viewBox="0 0 64 64">
  <g id="grey">
    <path fill="#909090" d="m10.858 30.55 7.01-4.048 3.055 2.564-7.012 4.048-3.053-2.564Zm5.458 4.58 7.011-4.048 3.055 2.564-7.012 4.048-3.054-2.564Zm3.805-9.928 1.516-.876 3.055 2.563-1.517.876-3.054-2.563Zm5.458 4.58 1.517-.876 3.054 2.563-1.516.876-3.055-2.563Zm5.478 4.628 1.539-.888 3.055 2.563-1.539.888-3.055-2.563Zm5.764 4.78 1.491-.872 3.054 2.563-1.491.872-3.054-2.563Zm.776 3.867-6.971 4.036-3.055-2.563 6.972-4.035 3.054 2.562Zm-9.248 5.34-1.953 1.127-3.055-2.563 1.953-1.127 3.055 2.563Zm-5.717-4.796-1.952 1.128-3.055-2.563 1.953-1.128 3.054 2.563Zm-.842-3.83 7.037-4.073 3.055 2.563-7.036 4.073-3.056-2.563Zm-10.115-5.366L9.72 35.533 6.667 32.97l1.952-1.128 3.056 2.563Zm5.458 4.58-1.954 1.128-3.054-2.563 1.953-1.128 3.055 2.563Zm17.324 14.537-1.954 1.128-3.054-2.563 1.953-1.128 3.055 2.563Zm-.817-3.855 7.011-4.048 3.055 2.564-7.012 4.047-3.054-2.563Zm5.458 4.58 7.011-4.048 3.055 2.564-7.012 4.048-3.054-2.564Zm3.805-9.928 1.517-.876 3.054 2.563-1.516.876-3.055-2.563Zm5.459 4.58 1.516-.876 3.055 2.563-1.517.876-3.054-2.563Zm-8.446 9.203-1.955 1.128-3.054-2.563 1.953-1.128 3.056 2.563Z"/>
    <path fill="#6e6e6e" d="m38.398 43.728-6.971 4.036-.806-.676 6.971-4.035.806.675Zm-9.249 5.341-2.753 1.589-3.055-2.556v-1.141l3.055 2.556 1.947-1.124.806.676Zm-5.716-4.797-2.753 1.59-3.055-2.555v-1.141l3.055 2.555 1.947-1.125.806.676Zm1.407-1.943 7.036-4.073.805.676-7.036 4.073-.805-.676Zm-12.367-7.252L9.72 36.666l-3.053-2.555V32.97l3.053 2.555 1.949-1.124.804.676Zm5.459 4.58-2.753 1.589-3.054-2.555V37.55l3.054 2.555 1.948-1.124.805.676Zm-4.117-6.486 7.102-4.11.806.676-7.102 4.11-.806-.676Zm5.459 4.58 7.102-4.11.805.676-7.102 4.11-.805-.676Zm3.895-9.991 1.517-.875v1.141l-.711.41-.806-.676Zm5.459 4.58 1.516-.875v1.141l-.711.41-.805-.676Zm5.478 4.629 1.539-.889v1.141l-.734.423-.805-.675Zm5.763 4.78 1.492-.872v1.141l-.715.382-.777-.651Zm11.541 9.708 1.517-.876v1.141l-.712.411-.805-.676Zm-16.154 2.737-2.753 1.589-3.054-2.555v-1.141l3.054 2.555 1.948-1.125.805.677Zm5.458 4.58-2.753 1.589-3.054-2.555v-1.141l3.054 2.555 1.949-1.125.804.677Zm-4.116-6.486 7.102-4.11.805.676-7.102 4.11-.805-.676Zm5.458 4.58 7.102-4.11.805.676-7.101 4.11-.806-.676Zm3.896-9.991 1.516-.876v1.141l-.711.411-.805-.676Z"/>
    <path fill="#575656" d="m42.511 60.327.132-1.512 1.151-.672-.133 1.518-1.15.665v.001Zm9.249-5.34.131-1.512 1.152-.672-.134 1.518-1.149.665v.001Z"/>
    <path fill="#b5b5b5" d="m7.511 29.328 1.151-.665L43.8 58.147l-1.157.66L7.511 29.328Zm9.249-5.34 1.151-.665 35.137 29.484-1.157.66L16.76 23.988Z"/>
    <path fill="#1a1a1a" d="m35.9 48.302-5.954-4.925.034-.284 6.125 5.091-.205.118Zm4.981 2.459.015.239-6.679-1.475-.03-.24 6.694 1.476ZM25.516 33.794l-.031.263-1.68.99-.189-.156 1.9-1.097Zm3.873 5.868-.028.279-2.103 1.214-5.748-4.756-1.898 1.105v-.322l.02-.011.001.006 1.916-1.102 5.774 4.779 2.066-1.192Z"/>
  </g>
  <g id="white">
    <path fill="#ffa700" d="m27.323 40.854-5.774-4.779-1.916 1.102-.8-4.861 6.695 1.471-1.915 1.102 5.776 4.773-2.066 1.192Zm4.717 1.05L38.171 47l1.918-1.1.792 4.861-6.694-1.476 1.918-1.101-6.125-5.091 2.06-1.189Z"/>
  </g>
  <g id="brown">
    <path fill="#877563" d="M7.511 30.958v-1.63l35.132 29.479-.133 1.519L7.511 30.958Zm9.249-5.34v-1.63l35.131 29.479-.133 1.519L16.76 25.618Z"/>
  </g>
</svg>
